<?xml version="1.0" encoding="UTF-8" standalone="no"?>
<!-- Created with Inkscape (http://www.inkscape.org/) -->

<svg
   xmlns:dc="http://purl.org/dc/elements/1.1/"
   xmlns:cc="http://creativecommons.org/ns#"
   xmlns:rdf="http://www.w3.org/1999/02/22-rdf-syntax-ns#"
   xmlns:svg="http://www.w3.org/2000/svg"
   xmlns="http://www.w3.org/2000/svg"
   xmlns:sodipodi="http://sodipodi.sourceforge.net/DTD/sodipodi-0.dtd"
   xmlns:inkscape="http://www.inkscape.org/namespaces/inkscape"
   width="32"
   height="32"
   viewBox="0 0 31.999999 31.999998"
   id="svg2"
   version="1.1"
   inkscape:version="0.91 r13725"
   sodipodi:docname="alpha-cutoff.svg"
   inkscape:export-filename="/home/ryan/Dropbox/C++/tresta/assets/alpha-cutoff_32x32.png"
   inkscape:export-xdpi="90"
   inkscape:export-ydpi="90">
  <defs
     id="defs4" />
  <sodipodi:namedview
     id="base"
     pagecolor="#ffffff"
     bordercolor="#666666"
     borderopacity="1.0"
     inkscape:pageopacity="0.0"
     inkscape:pageshadow="2"
     inkscape:zoom="5.6"
     inkscape:cx="-0.29310062"
     inkscape:cy="8.5020083"
     inkscape:document-units="px"
     inkscape:current-layer="layer1"
     showgrid="false"
     units="px"
     inkscape:window-width="1920"
     inkscape:window-height="1025"
     inkscape:window-x="0"
     inkscape:window-y="29"
     inkscape:window-maximized="1" />
  <metadata
     id="metadata7">
    <rdf:RDF>
      <cc:Work
         rdf:about="">
        <dc:format>image/svg+xml</dc:format>
        <dc:type
           rdf:resource="http://purl.org/dc/dcmitype/StillImage" />
        <dc:title></dc:title>
      </cc:Work>
    </rdf:RDF>
  </metadata>
  <g
     inkscape:label="Layer 1"
     inkscape:groupmode="layer"
     id="layer1"
     transform="translate(0,-1020.3622)">
    <g
       id="g4205"
       transform="translate(0,-0.78570334)">
      <path
         id="path4142"
         d="m 23.07143,1028.3831 c -12.690413,0 -10.381017,5.7678 -15.7574037,12.4369 -0.7604105,-0.5661 -1.6729036,-0.9012 -2.7008663,-0.9012 -2.5487852,0 -4.61315976,2.0644 -4.61315976,4.616 0,2.5488 2.06437456,4.6131 4.61315976,4.6131 0.4168171,0 0.8082881,-0.1154 1.1884937,-0.1858 l -0.033796,0.1858 0.3238789,-0.2534 c 1.0138812,-0.3464 1.8446999,-1.0505 2.4220495,-1.9489 z m -16.1488747,16.1517 c 0,1.2673 -1.039228,2.3065 -2.3093953,2.3065 -1.2673518,0 -2.3065799,-1.0392 -2.3065799,-2.3065 0,-1.2702 1.0392281,-2.3094 2.3065799,-2.3094 1.2701673,0 2.3093953,1.0392 2.3093953,2.3094 z"
         style="fill:#aaaaaa"
         inkscape:connector-curvature="0" />
      <text
         sodipodi:linespacing="125%"
         id="text4136"
         y="1040.1166"
         x="10.482381"
         style="font-style:normal;font-variant:normal;font-weight:normal;font-stretch:normal;font-size:34.84440994px;line-height:125%;font-family:Sylfaen;-inkscape-font-specification:'Sylfaen, Normal';text-align:start;letter-spacing:0px;word-spacing:0px;writing-mode:lr-tb;text-anchor:start;fill:#000000;fill-opacity:1;stroke:none;stroke-width:1px;stroke-linecap:butt;stroke-linejoin:miter;stroke-opacity:1"
         xml:space="preserve"><tspan
           style="font-style:normal;font-variant:normal;font-weight:normal;font-stretch:normal;font-size:34.84440994px;line-height:125%;font-family:Sylfaen;-inkscape-font-specification:'Sylfaen, Normal';text-align:start;writing-mode:lr-tb;text-anchor:start"
           y="1040.1166"
           x="10.482381"
           id="tspan4138"
           sodipodi:role="line">α</tspan></text>
      <path
         id="path4144"
         d="m 23.07143,1046.8413 c -12.690413,0 -10.381017,-5.7678 -15.7574037,-12.4369 -0.7604105,0.5661 -1.6729036,0.9012 -2.7008663,0.9012 -2.5487852,0 -4.61315976,-2.0643 -4.61315976,-4.6159 0,-2.5488 2.06437456,-4.6132 4.61315976,-4.6132 0.4168171,0 0.8082881,0.082 1.1884937,0.1859 l -0.033796,-0.1859 0.3238789,0.2535 c 1.0138812,0.3464 1.8446999,1.0505 2.4220495,1.9489 z M 6.9225553,1030.6897 c 0,-1.2674 -1.039228,-2.3066 -2.3093953,-2.3066 -1.2673518,0 -2.3065799,1.0392 -2.3065799,2.3066 0,1.2701 1.0392281,2.3094 2.3065799,2.3094 1.2701673,0 2.3093953,-1.0393 2.3093953,-2.3094 z"
         style="fill:#cccccc"
         inkscape:connector-curvature="0" />
    </g>
  </g>
</svg>
