<?xml version="1.0" encoding="UTF-8" standalone="no"?>
<svg
   xmlns:dc="http://purl.org/dc/elements/1.1/"
   xmlns:cc="http://creativecommons.org/ns#"
   xmlns:rdf="http://www.w3.org/1999/02/22-rdf-syntax-ns#"
   xmlns:svg="http://www.w3.org/2000/svg"
   xmlns="http://www.w3.org/2000/svg"
   xmlns:sodipodi="http://sodipodi.sourceforge.net/DTD/sodipodi-0.dtd"
   xmlns:inkscape="http://www.inkscape.org/namespaces/inkscape"
   viewBox="0 0 32 32"
   id="svg2"
   version="1.1"
   inkscape:version="0.91 r13725"
   sodipodi:docname="default-folder-video.svg"
   inkscape:export-filename="/home/ryan/Dropbox/C++/tresta/assets/default-folder-video_32x32.png"
   inkscape:export-xdpi="90"
   inkscape:export-ydpi="90">
  <metadata
     id="metadata33">
    <rdf:RDF>
      <cc:Work
         rdf:about="">
        <dc:format>image/svg+xml</dc:format>
        <dc:type
           rdf:resource="http://purl.org/dc/dcmitype/StillImage" />
        <dc:title></dc:title>
      </cc:Work>
    </rdf:RDF>
  </metadata>
  <sodipodi:namedview
     pagecolor="#ffffff"
     bordercolor="#666666"
     borderopacity="1"
     objecttolerance="10"
     gridtolerance="10"
     guidetolerance="10"
     inkscape:pageopacity="0"
     inkscape:pageshadow="2"
     inkscape:window-width="1920"
     inkscape:window-height="1025"
     id="namedview31"
     showgrid="false"
     inkscape:zoom="7.375"
     inkscape:cx="4.1565435"
     inkscape:cy="22.188906"
     inkscape:window-x="0"
     inkscape:window-y="29"
     inkscape:window-maximized="1"
     inkscape:current-layer="svg2" />
  <defs
     id="defs4">
    <radialGradient
       id="radialGradient3031"
       gradientUnits="userSpaceOnUse"
       gradientTransform="matrix(1,0,0,0.10447761,0,50.597015)"
       cx="32.5"
       cy="56.5"
       r="33.5">
      <stop
         style="stop-color:#000;stop-opacity:1"
         id="stop7" />
      <stop
         offset="1"
         style="stop-color:#000;stop-opacity:0"
         id="stop9" />
    </radialGradient>
  </defs>
  <g
     transform="translate(0,-1020.3622)"
     id="g11">
    <path
       d="m 66 56.5 a 33.5 3.5 0 1 1 -67 0 33.5 3.5 0 1 1 67 0 z"
       transform="matrix(0.71641791,0,0,0.85714286,-7.2835821,999.9336)"
       style="fill:url(#radialGradient3031);opacity:0.3;fill-opacity:1;stroke:none"
       id="path13" />
    <g
       transform="matrix(0.5,0,0,0.5,20.823632,508.499)"
       id="g15">
      <path
         d="m -41.647 1032.79 0 42.823 64 0 0 -21.412 -3.048 -18.353 -23.952 -0.118 -3 -6 -30.952 0 c -1.524 0 -3.048 1.53 -3.048 3.059 z"
         style="fill:#ef6c00;fill-opacity:1;stroke:none"
         id="path17" />
      <rect
         y="1037.73"
         x="-36.647"
         height="11.882"
         width="31.571"
         style="fill:#fffdf0;fill-opacity:1;stroke:none"
         id="rect19" />
      <path
         d="m -38.585 1029.73 c -1.524 0 -3.063 1.533 -3.063 3.063 l 0 2 c 0 -1.529 1.539 -3.063 3.063 -3.063 l 29.938 0 3 6 24.938 0.125 3.063 18.344 0 -2 -3.063 -18.344 -23.938 -0.125 -3 -6 z"
         style="fill:#000;opacity:0.03;fill-opacity:1;stroke:none"
         id="path21" />
      <path
         d="m 22.353 1038.9 0 42.823 -64 0 0 -40 30 0 3 -6 27.952 0.118 c 1.524 0 3.048 1.53 3.048 3.059 z"
         style="fill:#ffa726;fill-opacity:1;stroke:none"
         id="path23" />
      <path
         d="m -41.647 1079.73 0 2 64 0 0 -2 z"
         style="fill:#000;opacity:0.15;fill-opacity:1;stroke:none"
         id="path25" />
      <path
         d="m -8.647 1035.73 -3 6 -30 0 0 2 31 0 3 -6 26.938 0.125 c 1.524 0 3.063 1.533 3.063 3.063 l 0 -2 c 0 -1.529 -1.539 -3.063 -3.063 -3.063 z"
         style="fill:#000;opacity:0.03;fill-opacity:1;stroke:none"
         id="path27" />
      <path
         d="m -18.647 1049.73 c -1.662 0 -3 1.338 -3 3 l 0 18 c 0 1.662 1.338 3 3 3 l 18 0 c 1.662 0 3 -1.338 3 -3 l 0 -18 c 0 -1.662 -1.338 -3 -3 -3 z m 1 2 4 0 0 4 -4 0 z m 12 0 4 0 0 4 -4 0 z m -12 8 4 0 0 4 -4 0 z m 12 0 4 0 0 4 -4 0 z m -12 8 4 0 0 4 -4 0 z m 12 0 4 0 0 4 -4 0 z"
         style="fill:#b17621;opacity:1;fill-opacity:1"
         id="path29" />
    </g>
  </g>
</svg>
