<?xml version="1.0" encoding="UTF-8" standalone="no"?>
<svg
   xmlns:dc="http://purl.org/dc/elements/1.1/"
   xmlns:cc="http://creativecommons.org/ns#"
   xmlns:rdf="http://www.w3.org/1999/02/22-rdf-syntax-ns#"
   xmlns:svg="http://www.w3.org/2000/svg"
   xmlns="http://www.w3.org/2000/svg"
   xmlns:sodipodi="http://sodipodi.sourceforge.net/DTD/sodipodi-0.dtd"
   xmlns:inkscape="http://www.inkscape.org/namespaces/inkscape"
   viewBox="0 0 32 32"
   id="svg2"
   version="1.1"
   inkscape:version="0.91 r13725"
   sodipodi:docname="export.svg"
   inkscape:export-filename="/Users/ryan/Dropbox/C++/tresta/assets/export.png"
   inkscape:export-xdpi="91.142845"
   inkscape:export-ydpi="91.142845">
  <metadata
     id="metadata14">
    <rdf:RDF>
      <cc:Work
         rdf:about="">
        <dc:format>image/svg+xml</dc:format>
        <dc:type
           rdf:resource="http://purl.org/dc/dcmitype/StillImage" />
        <dc:title></dc:title>
      </cc:Work>
    </rdf:RDF>
  </metadata>
  <defs
     id="defs12" />
  <sodipodi:namedview
     pagecolor="#ffffff"
     bordercolor="#666666"
     borderopacity="1"
     objecttolerance="10"
     gridtolerance="10"
     guidetolerance="10"
     inkscape:pageopacity="0"
     inkscape:pageshadow="2"
     inkscape:window-width="1680"
     inkscape:window-height="1001"
     id="namedview10"
     showgrid="false"
     inkscape:zoom="10.429825"
     inkscape:cx="-4.215837"
     inkscape:cy="16"
     inkscape:window-x="0"
     inkscape:window-y="1"
     inkscape:window-maximized="1"
     inkscape:current-layer="svg2" />
  <g
     style="fill-rule:evenodd"
     id="g4">
    <path
       d="M 3.429688 0 L 20.570312 0 C 24 0 24 0 24 3.554688 L 24 28.445312 C 24 32 24 32 20.570312 32 L 3.429688 32 C 0 32 0 32 0 28.445312 L 0 3.554688 C 0 0 0 0 3.429688 0 Z "
       style="fill:#fff"
       id="path6" />
    <path
       d="m 18.751 26.75 c 0.281 0 0.635 -0.308 1.188 -0.75 l 10 -8 c 2.217 -1.774 2.209 -2.233 0 -4 l -10 -8 c -1.657 -1.325 -1.938 -1 -2 2.25 -0.019 1 0 3.75 0 3.75 l -0.063 0 c -9.938 0 -13.939 6 -13.876 14.06 3.938 -4.063 7.938 -6.06 13.939 -5.938 l 0 3.625 c 0.063 2.25 0.25 3 0.813 3 z"
       style="fill:#268bd2"
       id="path8" />
  </g>
  <text
     xml:space="preserve"
     style="font-style:normal;font-weight:normal;font-size:9.57049084px;line-height:125%;font-family:sans-serif;letter-spacing:0px;word-spacing:0px;fill:#000000;fill-opacity:1;stroke:none;stroke-width:1px;stroke-linecap:butt;stroke-linejoin:miter;stroke-opacity:1"
     x="-0.052728422"
     y="9.3559322"
     id="text4142"
     sodipodi:linespacing="125%"><tspan
       sodipodi:role="line"
       id="tspan4144"
       x="-0.052728422"
       y="9.3559322">.PLY</tspan></text>
</svg>
