<?xml version="1.0" encoding="UTF-8" standalone="no"?>
<svg
   xmlns:dc="http://purl.org/dc/elements/1.1/"
   xmlns:cc="http://creativecommons.org/ns#"
   xmlns:rdf="http://www.w3.org/1999/02/22-rdf-syntax-ns#"
   xmlns:svg="http://www.w3.org/2000/svg"
   xmlns="http://www.w3.org/2000/svg"
   xmlns:sodipodi="http://sodipodi.sourceforge.net/DTD/sodipodi-0.dtd"
   xmlns:inkscape="http://www.inkscape.org/namespaces/inkscape"
   height="32px"
   style="enable-background:new 0 0 32 32;"
   version="1.1"
   viewBox="0 0 32 32"
   width="32px"
   xml:space="preserve"
   id="svg2"
   inkscape:version="0.91 r13725"
   sodipodi:docname="pan.svg"
   inkscape:export-filename="/Users/ryan/Dropbox/C++/tresta-widget-simple/assets/pan_32x32.png"
   inkscape:export-xdpi="90"
   inkscape:export-ydpi="90"><metadata
     id="metadata20"><rdf:RDF><cc:Work
         rdf:about=""><dc:format>image/svg+xml</dc:format><dc:type
           rdf:resource="http://purl.org/dc/dcmitype/StillImage" /><dc:title></dc:title></cc:Work></rdf:RDF></metadata><defs
     id="defs18" /><sodipodi:namedview
     pagecolor="#ffffff"
     bordercolor="#666666"
     borderopacity="1"
     objecttolerance="10"
     gridtolerance="10"
     guidetolerance="10"
     inkscape:pageopacity="0"
     inkscape:pageshadow="2"
     inkscape:window-width="697"
     inkscape:window-height="480"
     id="namedview16"
     showgrid="false"
     inkscape:zoom="7.375"
     inkscape:cx="16"
     inkscape:cy="16"
     inkscape:window-x="761"
     inkscape:window-y="143"
     inkscape:window-maximized="0"
     inkscape:current-layer="svg2" /><g
     id="Layer_1" /><g
     id="move_x5F_alt1"><g
       id="g6"><polygon
         points="16,22 18,20 18,26 22,26 16,32 10,26 14,26 14,20   "
         style="fill:#4E4E50;"
         id="polygon8" /><polygon
         points="16,10.062 14,12 14,6 10,6 16,0 22,6 18,6 18,12   "
         style="fill:#4E4E50;"
         id="polygon10" /><polygon
         points="10,16 12,18 6,18 6,22 0,16 6,10 6,14 12,14   "
         style="fill:#4E4E50;"
         id="polygon12" /><polygon
         points="21.938,16 20,14 26,14 26,10 32,16 26,22 26,18 20,18   "
         style="fill:#4E4E50;"
         id="polygon14" /></g></g></svg>