<?xml version="1.0" encoding="UTF-8" standalone="no"?>
<svg
   xmlns:dc="http://purl.org/dc/elements/1.1/"
   xmlns:cc="http://creativecommons.org/ns#"
   xmlns:rdf="http://www.w3.org/1999/02/22-rdf-syntax-ns#"
   xmlns:svg="http://www.w3.org/2000/svg"
   xmlns="http://www.w3.org/2000/svg"
   xmlns:sodipodi="http://sodipodi.sourceforge.net/DTD/sodipodi-0.dtd"
   xmlns:inkscape="http://www.inkscape.org/namespaces/inkscape"
   height="32px"
   style="enable-background:new 0 0 32 32;"
   version="1.1"
   viewBox="0 0 32 32"
   width="32px"
   xml:space="preserve"
   id="svg2"
   inkscape:version="0.91 r13725"
   sodipodi:docname="rotate.svg"
   inkscape:export-filename="/Users/ryan/Dropbox/C++/tresta-widget-simple/assets/rotate_32x32.png"
   inkscape:export-xdpi="90"
   inkscape:export-ydpi="90"><metadata
     id="metadata15"><rdf:RDF><cc:Work
         rdf:about=""><dc:format>image/svg+xml</dc:format><dc:type
           rdf:resource="http://purl.org/dc/dcmitype/StillImage" /><dc:title></dc:title></cc:Work></rdf:RDF></metadata><defs
     id="defs13" /><sodipodi:namedview
     pagecolor="#ffffff"
     bordercolor="#666666"
     borderopacity="1"
     objecttolerance="10"
     gridtolerance="10"
     guidetolerance="10"
     inkscape:pageopacity="0"
     inkscape:pageshadow="2"
     inkscape:window-width="697"
     inkscape:window-height="480"
     id="namedview11"
     showgrid="false"
     inkscape:zoom="7.375"
     inkscape:cx="16"
     inkscape:cy="16"
     inkscape:window-x="0"
     inkscape:window-y="0"
     inkscape:window-maximized="0"
     inkscape:current-layer="svg2" /><g
     id="_x32__audio_simple_repeat_2"><g
       id="g5"><path
         d="M27.877,19.662c0.385-1.23,0.607-2.531,0.607-3.884c0-7.222-5.83-13.101-13.029-13.194v4.238    c4.863,0.093,8.793,4.071,8.793,8.956c0,0.678-0.088,1.332-0.232,1.966l-3.963-1.966l2.76,8.199l8.197-2.762L27.877,19.662z"
         id="path7"
         style="fill:#4e4e50;fill-opacity:1" /><path
         d="M7.752,16.222c0-0.678,0.088-1.332,0.232-1.967l3.963,1.967l-2.76-8.199L0.99,10.785l3.133,1.553    c-0.384,1.23-0.607,2.531-0.607,3.885c0,7.223,5.83,13.1,13.03,13.194v-4.238C11.682,25.086,7.752,21.107,7.752,16.222z"
         id="path9"
         style="fill:#4e4e50;fill-opacity:1" /></g></g></svg>