<?xml version="1.0" encoding="UTF-8" standalone="no"?>
<svg
   xmlns:dc="http://purl.org/dc/elements/1.1/"
   xmlns:cc="http://creativecommons.org/ns#"
   xmlns:rdf="http://www.w3.org/1999/02/22-rdf-syntax-ns#"
   xmlns:svg="http://www.w3.org/2000/svg"
   xmlns="http://www.w3.org/2000/svg"
   xmlns:sodipodi="http://sodipodi.sourceforge.net/DTD/sodipodi-0.dtd"
   xmlns:inkscape="http://www.inkscape.org/namespaces/inkscape"
   viewBox="0 0 32 32"
   id="svg2"
   version="1.1"
   inkscape:version="0.91 r13725"
   sodipodi:docname="show-deformed.svg"
   width="32"
   height="32"
   inkscape:export-filename="/Users/ryan/Dropbox/C++/tresta-widget-simple/assets/show-deformed_32x32.png"
   inkscape:export-xdpi="90"
   inkscape:export-ydpi="90">
  <metadata
     id="metadata98">
    <rdf:RDF>
      <cc:Work
         rdf:about="">
        <dc:format>image/svg+xml</dc:format>
        <dc:type
           rdf:resource="http://purl.org/dc/dcmitype/StillImage" />
        <dc:title />
      </cc:Work>
    </rdf:RDF>
  </metadata>
  <sodipodi:namedview
     pagecolor="#ffffff"
     bordercolor="#666666"
     borderopacity="1"
     objecttolerance="10"
     gridtolerance="10"
     guidetolerance="10"
     inkscape:pageopacity="0"
     inkscape:pageshadow="2"
     inkscape:window-width="1680"
     inkscape:window-height="1001"
     id="namedview96"
     showgrid="true"
     inkscape:zoom="24.96875"
     inkscape:cx="16"
     inkscape:cy="16"
     inkscape:window-x="-65"
     inkscape:window-y="43"
     inkscape:window-maximized="0"
     inkscape:current-layer="svg2">
    <inkscape:grid
       type="xygrid"
       id="grid4360" />
  </sodipodi:namedview>
  <defs
     id="defs4">
    <path
       id="SVGCleanerId_0"
       d="m 14,12 20,0 c 1.105,0 2,0.895 2,2 l 0,20 c 0,1.105 -0.895,2 -2,2 l -20,0 c -1.105,0 -2,-0.895 -2,-2 l 0,-20 c 0,-1.105 0.895,-2 2,-2 m 0,0"
       inkscape:connector-curvature="0" />
  </defs>
  <path
     style="opacity:1;fill:#f44336;fill-opacity:1;fill-rule:nonzero;stroke:none;stroke-width:1;stroke-linejoin:round;stroke-miterlimit:4;stroke-dasharray:none;stroke-opacity:1"
     d="m 6.8288445,1.9949935 -0.3679597,2.1484553 -1.1038811,6.4453652 -0.3679601,2.148454 -1.103881,6.445364 -0.3679601,2.148456 -1.1038808,6.445363 -0.3679601,2.148456 23.0898044,0 0.367959,-2.148456 2.575723,-15.039183 0.367959,-2.148454 1.471841,-8.5938205 -23.0898035,0 z m 1.4081791,2.1484553 5.3284164,0 -1.10388,6.4453652 -5.3284171,0 1.1038807,-6.4453652 z m 7.1045564,0 5.328415,0 -1.103881,6.4453652 -5.328416,0 1.103882,-6.4453652 z m 7.104554,0 5.328417,0 -1.103883,6.4453652 -5.328416,0 1.103882,-6.4453652 z m -15.6809513,8.5938192 5.3284163,0 -1.103882,6.445364 -5.3284156,0 1.1038813,-6.445364 z m 7.1045553,0 5.328416,0 -1.103882,6.445364 -5.328415,0 1.103881,-6.445364 z m 7.104556,0 5.328415,0 -1.103882,6.445364 -5.328415,0 1.103882,-6.445364 z m -15.6809527,8.59382 5.3284157,0 -1.1038806,6.445363 -5.3284158,0 1.1038807,-6.445363 z m 7.1045547,0 5.328417,0 -1.103881,6.445363 -5.328417,0 1.103881,-6.445363 z m 7.104555,0 5.328416,0 -1.10388,6.445363 -5.328415,0 1.103879,-6.445363 z"
     id="rect4151"
     inkscape:connector-curvature="0" />
</svg>
