<?xml version="1.0" encoding="UTF-8" standalone="no"?>
<svg
   xmlns:dc="http://purl.org/dc/elements/1.1/"
   xmlns:cc="http://creativecommons.org/ns#"
   xmlns:rdf="http://www.w3.org/1999/02/22-rdf-syntax-ns#"
   xmlns:svg="http://www.w3.org/2000/svg"
   xmlns="http://www.w3.org/2000/svg"
   xmlns:sodipodi="http://sodipodi.sourceforge.net/DTD/sodipodi-0.dtd"
   xmlns:inkscape="http://www.inkscape.org/namespaces/inkscape"
   viewBox="0 0 32 32"
   id="svg2"
   version="1.1"
   inkscape:version="0.91 r13725"
   sodipodi:docname="show-original.svg"
   width="32"
   height="32"
   inkscape:export-filename="/Users/ryan/Dropbox/C++/tresta-widget-simple/assets/show-original_32x32.png"
   inkscape:export-xdpi="90"
   inkscape:export-ydpi="90">
  <metadata
     id="metadata98">
    <rdf:RDF>
      <cc:Work
         rdf:about="">
        <dc:format>image/svg+xml</dc:format>
        <dc:type
           rdf:resource="http://purl.org/dc/dcmitype/StillImage" />
        <dc:title />
      </cc:Work>
    </rdf:RDF>
  </metadata>
  <sodipodi:namedview
     pagecolor="#ffffff"
     bordercolor="#666666"
     borderopacity="1"
     objecttolerance="10"
     gridtolerance="10"
     guidetolerance="10"
     inkscape:pageopacity="0"
     inkscape:pageshadow="2"
     inkscape:window-width="1680"
     inkscape:window-height="1001"
     id="namedview96"
     showgrid="true"
     inkscape:zoom="19.666668"
     inkscape:cx="5.2456981"
     inkscape:cy="11.700742"
     inkscape:window-x="-65"
     inkscape:window-y="23"
     inkscape:window-maximized="0"
     inkscape:current-layer="svg2">
    <inkscape:grid
       type="xygrid"
       id="grid4360" />
  </sodipodi:namedview>
  <defs
     id="defs4">
    <path
       id="SVGCleanerId_0"
       d="m 14,12 20,0 c 1.105,0 2,0.895 2,2 l 0,20 c 0,1.105 -0.895,2 -2,2 l -20,0 c -1.105,0 -2,-0.895 -2,-2 l 0,-20 c 0,-1.105 0.895,-2 2,-2 m 0,0"
       inkscape:connector-curvature="0" />
  </defs>
  <path
     style="opacity:1;fill:#1696f3;fill-opacity:1;fill-rule:nonzero;stroke:none;stroke-width:1;stroke-linejoin:round;stroke-miterlimit:4;stroke-dasharray:none;stroke-opacity:1"
     d="m 2.0847458,2.0338984 0,2.1447197 0,6.4341589 0,2.14472 0,6.434158 0,2.14472 0,6.434159 0,2.14472 27.8813562,0 0,-2.14472 0,-15.013037 0,-2.14472 0,-8.5788786 -27.8813562,0 z m 2.1447197,2.1447197 6.4341585,0 0,6.4341589 -6.4341585,0 0,-6.4341589 z m 8.5788795,0 6.434158,0 0,6.4341589 -6.434158,0 0,-6.4341589 z m 8.578878,0 6.434159,0 0,6.4341589 -6.434159,0 0,-6.4341589 z m -17.1577575,8.5788789 6.4341585,0 0,6.434158 -6.4341585,0 0,-6.434158 z m 8.5788795,0 6.434158,0 0,6.434158 -6.434158,0 0,-6.434158 z m 8.578878,0 6.434159,0 0,6.434158 -6.434159,0 0,-6.434158 z m -17.1577575,8.578878 6.4341585,0 0,6.434159 -6.4341585,0 0,-6.434159 z m 8.5788795,0 6.434158,0 0,6.434159 -6.434158,0 0,-6.434159 z m 8.578878,0 6.434159,0 0,6.434159 -6.434159,0 0,-6.434159 z"
     id="rect4151"
     inkscape:connector-curvature="0" />
</svg>
