<?xml version="1.0" encoding="UTF-8" standalone="no"?>
<svg
   xmlns:dc="http://purl.org/dc/elements/1.1/"
   xmlns:cc="http://creativecommons.org/ns#"
   xmlns:rdf="http://www.w3.org/1999/02/22-rdf-syntax-ns#"
   xmlns:svg="http://www.w3.org/2000/svg"
   xmlns="http://www.w3.org/2000/svg"
   xmlns:sodipodi="http://sodipodi.sourceforge.net/DTD/sodipodi-0.dtd"
   xmlns:inkscape="http://www.inkscape.org/namespaces/inkscape"
   height="18px"
   version="1.1"
   viewBox="0 0 18 18"
   width="18px"
   id="svg2"
   inkscape:version="0.91 r13725"
   sodipodi:docname="zoom.svg"
   inkscape:export-filename="/Users/ryan/Dropbox/C++/tresta-widget-simple/assets/zoom_32x32.png"
   inkscape:export-xdpi="159.42857"
   inkscape:export-ydpi="159.42857">
  <metadata
     id="metadata16">
    <rdf:RDF>
      <cc:Work
         rdf:about="">
        <dc:format>image/svg+xml</dc:format>
        <dc:type
           rdf:resource="http://purl.org/dc/dcmitype/StillImage" />
        <dc:title></dc:title>
      </cc:Work>
    </rdf:RDF>
  </metadata>
  <sodipodi:namedview
     pagecolor="#ffffff"
     bordercolor="#666666"
     borderopacity="1"
     objecttolerance="10"
     gridtolerance="10"
     guidetolerance="10"
     inkscape:pageopacity="0"
     inkscape:pageshadow="2"
     inkscape:window-width="697"
     inkscape:window-height="480"
     id="namedview14"
     showgrid="false"
     inkscape:zoom="13.111111"
     inkscape:cx="9"
     inkscape:cy="9"
     inkscape:window-x="86"
     inkscape:window-y="285"
     inkscape:window-maximized="0"
     inkscape:current-layer="svg2" />
  <desc
     id="desc6" />
  <defs
     id="defs8" />
  <g
     fill="none"
     fill-rule="evenodd"
     id="Page-1"
     stroke="none"
     stroke-width="1">
    <g
       fill="#000000"
       id="Core"
       transform="translate(-339.000000, -381.000000)">
      <g
         id="search"
         transform="translate(339.000000, 381.000000)">
        <path
           d="M12.5,11 L11.7,11 L11.4,10.7 C12.4,9.6 13,8.1 13,6.5 C13,2.9 10.1,0 6.5,0 C2.9,0 0,2.9 0,6.5 C0,10.1 2.9,13 6.5,13 C8.1,13 9.6,12.4 10.7,11.4 L11,11.7 L11,12.5 L16,17.5 L17.5,16 L12.5,11 L12.5,11 Z M6.5,11 C4,11 2,9 2,6.5 C2,4 4,2 6.5,2 C9,2 11,4 11,6.5 C11,9 9,11 6.5,11 L6.5,11 Z"
           id="Shape"
           style="fill:#4e4e50;fill-opacity:1" />
      </g>
    </g>
  </g>
</svg>
